<svg viewBox="0 0 16 16" xmlns="http://www.w3.org/2000/svg"><defs><clipPath id="a"><path d="M0 0h16v16H0z" /></clipPath><style>.c{fill:#0258fe} .b{fill:#fff} @media(prefers-color-scheme:dark){.c{fill:#151515} .b{fill:#FC5B5B}}</style></defs><g clip-path="url(#a)"><path class="c" d="M0 0h16v16H0z" /><path class="b" d="M.85 10.901a6.416 6.416 0 01-2.503-2.466 6.013 6.013 0 01-.725-3.268 8.018 8.018 0 011.143-3.592 8.065 8.065 0 012.599-2.83A6.168 6.168 0 014.691-2.26 7.065 7.065 0 018.324-1.22a6.635 6.635 0 012.894 3.01 5.288 5.288 0 01.187 3.804L8.971 4.188a2.77 2.77 0 00-.242-1.87A3.809 3.809 0 007.164.79 3.966 3.966 0 003.756.33 5.335 5.335 0 00.988 2.876a5.133 5.133 0 00-.803 3.612 3.835 3.835 0 001.986 2.588 3.694 3.694 0 002.953.535A4.548 4.548 0 007.452 7.88l-3.01-1.737.944-1.634 5.21 3.008-3.786 6.556-2.009-1.16.732-1.666a4.613 4.613 0 01-2.203.47 5.437 5.437 0 01-2.48-.815zM7.417 16.572l5.256-9.632h1.225l1.83 9.632h-1.2l-.454-2.477h-4.1l-1.321 2.477zm3.041-3.385h3.454l-.881-4.871z" /></g></svg>